<svg width="79" height="79" viewBox="0 0 79 79" fill="none" xmlns="http://www.w3.org/2000/svg">
<path d="M72.3343 49.6219C72.6594 50.185 72.8305 50.8238 72.8304 51.4741C72.8303 52.1243 72.659 52.7631 72.3337 53.3261C72.0084 53.8891 71.5406 54.3565 70.9773 54.6814C70.414 55.0062 69.7751 55.177 69.1249 55.1766C68.4732 55.1834 67.8316 55.0152 67.2671 54.6895C66.7026 54.3639 66.2358 53.8926 65.9155 53.325L60.8854 44.6227C58.0528 46.3955 55.0034 47.7957 51.8128 48.7887L53.4175 57.8614C53.5062 58.3399 53.4989 58.8313 53.396 59.307C53.2932 59.7827 53.0968 60.2332 52.8182 60.6324C52.5397 61.0315 52.1846 61.3713 51.7736 61.632C51.3626 61.8926 50.9039 62.069 50.4241 62.1508L49.7761 62.2125C48.9071 62.2115 48.0662 61.9049 47.4005 61.3463C46.7348 60.7878 46.2867 60.013 46.1347 59.1575L44.5608 50.3008C42.8826 50.5159 41.1918 50.619 39.4999 50.6094C37.7982 50.6026 36.0982 50.4996 34.4081 50.3008L32.8343 59.1575C32.6822 60.013 32.2341 60.7878 31.5684 61.3463C30.9027 61.9049 30.0618 62.2115 29.1929 62.2125L28.5448 62.1508C28.065 62.069 27.6063 61.8926 27.1953 61.632C26.7843 61.3713 26.4292 61.0315 26.1507 60.6324C25.8722 60.2332 25.6758 59.7827 25.5729 59.307C25.47 58.8313 25.4627 58.3399 25.5515 57.8614L27.1561 48.7887C23.9753 47.7955 20.9362 46.3952 18.1143 44.6227L13.0534 53.3868C12.7258 53.948 12.2574 54.414 11.6946 54.7387C11.1317 55.0634 10.4938 55.2356 9.84403 55.2383C9.19363 55.2435 8.55392 55.0729 7.99247 54.7446C7.5708 54.5016 7.20116 54.1779 6.90468 53.792C6.6082 53.4061 6.39069 52.9656 6.26458 52.4955C6.13848 52.0255 6.10625 51.5352 6.16975 51.0528C6.23325 50.5703 6.39123 50.105 6.63465 49.6836L12.1585 40.1172C10.2893 38.4567 8.56517 36.6397 7.00497 34.686C6.66409 34.3136 6.40293 33.8755 6.23756 33.3986C6.07218 32.9216 6.00606 32.4159 6.04328 31.9124C6.08049 31.409 6.22025 30.9185 6.45396 30.471C6.68767 30.0236 7.0104 29.6286 7.40233 29.3104C7.79425 28.9923 8.24709 28.7576 8.73303 28.6208C9.21896 28.484 9.72773 28.4481 10.2281 28.5151C10.7284 28.5821 11.2098 28.7508 11.6426 29.0106C12.0754 29.2705 12.4505 29.6161 12.7448 30.0262C17.6206 36.0438 26.1995 43.2032 39.4999 43.2032C52.8003 43.2032 61.3792 36.0438 66.255 30.0262C66.5493 29.6161 66.9244 29.2705 67.3572 29.0106C67.79 28.7508 68.2714 28.5821 68.7717 28.5151C69.272 28.4481 69.7808 28.484 70.2667 28.6208C70.7527 28.7576 71.2055 28.9923 71.5975 29.3104C71.9894 29.6286 72.3121 30.0236 72.5458 30.471C72.7795 30.9185 72.9193 31.409 72.9565 31.9124C72.9937 32.4159 72.9276 32.9216 72.7622 33.3986C72.5968 33.8755 72.3357 34.3136 71.9948 34.686C70.4274 36.643 68.7039 38.4697 66.8413 40.1481L72.3343 49.6219Z" fill="#ACABAA"/>
</svg>
