<svg width="75" height="75" viewBox="0 0 75 75" fill="none" xmlns="http://www.w3.org/2000/svg">
<path d="M37.5 20.3125C43.246 20.2934 48.8809 21.8962 53.7566 24.9366C58.6324 27.9771 62.5512 32.3318 65.0625 37.5C59.9062 48.0312 49.375 54.6875 37.5 54.6875C25.625 54.6875 15.0938 48.0312 9.9375 37.5C12.4488 32.3318 16.3676 27.9771 21.2434 24.9366C26.1191 21.8962 31.754 20.2934 37.5 20.3125ZM37.5 14.0625C21.875 14.0625 8.53125 23.7812 3.125 37.5C8.53125 51.2188 21.875 60.9375 37.5 60.9375C53.125 60.9375 66.4688 51.2188 71.875 37.5C66.4688 23.7812 53.125 14.0625 37.5 14.0625ZM37.5 29.6875C39.572 29.6875 41.5591 30.5106 43.0243 31.9757C44.4894 33.4409 45.3125 35.428 45.3125 37.5C45.3125 39.572 44.4894 41.5591 43.0243 43.0243C41.5591 44.4894 39.572 45.3125 37.5 45.3125C35.428 45.3125 33.4409 44.4894 31.9757 43.0243C30.5106 41.5591 29.6875 39.572 29.6875 37.5C29.6875 35.428 30.5106 33.4409 31.9757 31.9757C33.4409 30.5106 35.428 29.6875 37.5 29.6875ZM37.5 23.4375C29.75 23.4375 23.4375 29.75 23.4375 37.5C23.4375 45.25 29.75 51.5625 37.5 51.5625C45.25 51.5625 51.5625 45.25 51.5625 37.5C51.5625 29.75 45.25 23.4375 37.5 23.4375Z" fill="#A6A6A6"/>
</svg>
