<svg width="251" height="673" viewBox="0 0 251 673" fill="none" xmlns="http://www.w3.org/2000/svg">
<path fill-rule="evenodd" clip-rule="evenodd" d="M251 0L245.555 16.124C240.655 31.8974 229.766 64.1453 209.076 96.0427C188.386 128.291 156.807 160.188 162.252 192.436C167.152 224.333 209.076 256.231 188.386 288.479C167.152 320.376 83.8482 352.624 88.7484 384.521C94.1931 416.769 188.386 448.667 214.521 480.564C240.655 512.812 198.731 544.709 193.286 576.957C188.386 608.855 219.421 641.103 235.21 656.876L251 673H1.52588e-05V656.876C1.52588e-05 641.103 1.52588e-05 608.855 1.52588e-05 576.957C1.52588e-05 544.709 1.52588e-05 512.812 1.52588e-05 480.564C1.52588e-05 448.667 1.52588e-05 416.769 1.52588e-05 384.521C1.52588e-05 352.624 1.52588e-05 320.376 1.52588e-05 288.479C1.52588e-05 256.231 1.52588e-05 224.333 1.52588e-05 192.436C1.52588e-05 160.188 1.52588e-05 128.291 1.52588e-05 96.0427C1.52588e-05 64.1453 1.52588e-05 31.8974 1.52588e-05 16.124V0L251 0Z" fill="url(#paint0_linear_72_37)"/>
<defs>
<linearGradient id="paint0_linear_72_37" x1="251" y1="336.5" x2="0" y2="336.5" gradientUnits="userSpaceOnUse">
<stop stop-color="#DB2748"/>
<stop offset="1" stop-color="#A5132D"/>
</linearGradient>
</defs>
</svg>
