<svg width="203" height="494" viewBox="0 0 203 494" fill="none" xmlns="http://www.w3.org/2000/svg">
<g clip-path="url(#clip0_743_316)">
<path fill-rule="evenodd" clip-rule="evenodd" d="M0 0L4.40347 16.124C8.36659 31.8974 17.1735 64.1453 33.9067 96.0427C50.6399 128.291 76.18 160.188 71.7766 192.436C67.8134 224.333 33.9067 256.231 50.6399 288.479C67.8135 320.376 135.187 352.624 131.223 384.521C126.82 416.769 50.6399 448.667 29.5033 480.564C8.36659 512.812 42.2733 544.709 46.6768 576.957C50.6399 608.855 25.5401 641.103 12.7701 656.876L0 673H203V656.876C203 641.103 203 608.855 203 576.957C203 544.709 203 512.812 203 480.564C203 448.667 203 416.769 203 384.521C203 352.624 203 320.376 203 288.479C203 256.231 203 224.333 203 192.436C203 160.188 203 128.291 203 96.0427C203 64.1453 203 31.8974 203 16.124V0L0 0Z" fill="url(#paint0_linear_743_316)"/>
</g>
<defs>
<linearGradient id="paint0_linear_743_316" x1="0" y1="336.5" x2="203" y2="336.5" gradientUnits="userSpaceOnUse">
<stop stop-color="#DB2748"/>
<stop offset="1" stop-color="#A5132D"/>
</linearGradient>
<clipPath id="clip0_743_316">
<rect width="203" height="494" fill="white"/>
</clipPath>
</defs>
</svg>
